<svg width="113" height="110" viewBox="0 0 113 110" fill="none" xmlns="http://www.w3.org/2000/svg">
<line x1="56" x2="56" y2="14" stroke="#E3E3E3" stroke-width="2"/>
<line x1="14.669" y1="16.2567" x2="24.669" y2="25.2567" stroke="#E3E3E3" stroke-width="2"/>
<line x1="85.7071" y1="83.2929" x2="95.7071" y2="93.2929" stroke="#E3E3E3" stroke-width="2"/>
<line x1="14.2929" y1="92.2929" x2="24.2929" y2="82.2929" stroke="#E3E3E3" stroke-width="2"/>
<line x1="87.2929" y1="25.2929" x2="97.2929" y2="15.2929" stroke="#E3E3E3" stroke-width="2"/>
<line x1="74.092" y1="15.5809" x2="80.092" y2="2.58094" stroke="#E3E3E3" stroke-width="2"/>
<line x1="33.092" y1="105.581" x2="39.092" y2="92.5809" stroke="#E3E3E3" stroke-width="2"/>
<line x1="71.908" y1="93.5809" x2="77.908" y2="106.581" stroke="#E3E3E3" stroke-width="2"/>
<line x1="31.8944" y1="3.55279" x2="37.8944" y2="15.5528" stroke="#E3E3E3" stroke-width="2"/>
<line x1="4.49613" y1="75.1362" x2="16.4961" y2="68.1362" stroke="#E3E3E3" stroke-width="2"/>
<line x1="96.641" y1="38.0667" x2="109.641" y2="33.0667" stroke="#E3E3E3" stroke-width="2"/>
<line x1="4.35898" y1="34.0667" x2="17.359" y2="39.0667" stroke="#E3E3E3" stroke-width="2"/>
<line x1="94.359" y1="69.0667" x2="107.359" y2="74.0667" stroke="#E3E3E3" stroke-width="2"/>
<line y1="52" x2="14" y2="52" stroke="#E3E3E3" stroke-width="2"/>
<line x1="99" y1="52" x2="113" y2="52" stroke="#E3E3E3" stroke-width="2"/>
<line x1="56" y1="96" x2="56" y2="110" stroke="#E3E3E3" stroke-width="2"/>
</svg>
