<svg width="129" height="129" viewBox="0 0 129 129" fill="none" xmlns="http://www.w3.org/2000/svg">
<line x1="64" x2="64" y2="14" stroke="#E3E3E3" stroke-width="2"/>
<line x1="16.669" y1="21.2567" x2="26.669" y2="30.2567" stroke="#E3E3E3" stroke-width="2"/>
<line x1="98.7071" y1="98.2929" x2="108.707" y2="108.293" stroke="#E3E3E3" stroke-width="2"/>
<line x1="17.2929" y1="107.293" x2="27.2929" y2="97.2929" stroke="#E3E3E3" stroke-width="2"/>
<line x1="100.293" y1="30.2929" x2="110.293" y2="20.2929" stroke="#E3E3E3" stroke-width="2"/>
<line x1="84.092" y1="18.5809" x2="90.092" y2="5.58094" stroke="#E3E3E3" stroke-width="2"/>
<line x1="37.092" y1="121.581" x2="43.092" y2="108.581" stroke="#E3E3E3" stroke-width="2"/>
<line x1="82.908" y1="108.581" x2="88.908" y2="121.581" stroke="#E3E3E3" stroke-width="2"/>
<line x1="36.8944" y1="6.55279" x2="42.8944" y2="18.5528" stroke="#E3E3E3" stroke-width="2"/>
<line x1="5.49613" y1="88.1362" x2="17.4961" y2="81.1362" stroke="#E3E3E3" stroke-width="2"/>
<line x1="109.641" y1="45.0667" x2="122.641" y2="40.0667" stroke="#E3E3E3" stroke-width="2"/>
<line x1="4.35898" y1="41.0667" x2="17.359" y2="46.0667" stroke="#E3E3E3" stroke-width="2"/>
<line x1="109.359" y1="81.0667" x2="122.359" y2="86.0667" stroke="#E3E3E3" stroke-width="2"/>
<line y1="62" x2="14" y2="62" stroke="#E3E3E3" stroke-width="2"/>
<line x1="113" y1="62" x2="127" y2="62" stroke="#E3E3E3" stroke-width="2"/>
<line x1="64" y1="113" x2="64" y2="127" stroke="#E3E3E3" stroke-width="2"/>
<circle cx="64.5" cy="64.5" r="49.5" fill="black" />
</svg>
