<svg width="107" height="106" viewBox="0 0 107 106" fill="none" xmlns="http://www.w3.org/2000/svg">
        <line x1="53.0797" y1="1.9" x2="53.0797" y2="14.177" stroke="#E3E3E3" stroke-width="2"></line>
        <line x1="13.9256" y1="20.2744" x2="23.3946" y2="26.7965" stroke="#E3E3E3" stroke-width="2"></line>
        <line x1="81.1938" y1="80.7531" x2="89.6628" y2="89.2221" stroke="#E3E3E3" stroke-width="2"></line>

        <line x1="14.4964" y1="86.2752" x2="22.9655" y2="78.8062" stroke="#E3E3E3" stroke-width="2"></line>
        <line x1="82.6203" y1="25.8327" x2="91.0894" y2="18.3637" stroke="#E3E3E3" stroke-width="2"></line>
        <line x1="70.1097" y1="17.6517" x2="74.7912" y2="6.34201" stroke="#E3E3E3" stroke-width="2"></line>
        <line x1="31.2867" y1="98.873" x2="36.9682" y2="88.5632" stroke="#E3E3E3" stroke-width="2"></line>
        <line x1="68.1381" y1="90.5101" x2="71.8195" y2="100.82" stroke="#E3E3E3" stroke-width="2"></line>
        <line x1="30.2484" y1="7.26073" x2="35.9298" y2="17.6236" stroke="#E3E3E3" stroke-width="2"></line>
        <line x1="5.23063" y1="70.0212" x2="15.5935" y2="65.3929" stroke="#E3E3E3" stroke-width="2"></line>
        <line x1="90.4906" y1="37.9162" y2="34.1817" stroke="#E3E3E3" stroke-width="2" x2="100.8"></line>
        <line x1="6.14658" x2="16.4563" y2="37.8631" stroke="#E3E3E3" stroke-width="2" y1="35.1286"></line>
        <line x1="89.3678" y1="66.2702" x2="101.678" y2="71.0047" stroke="#E3E3E3" stroke-width="2"></line>
        <line y1="50.1062" x2="13.2566" y2="50.1062" stroke="#E3E3E3" stroke-width="2" x1="2.4"></line>
        <line x1="93.7433" y1="50.1062" x2="104.5" y2="50.1062" stroke="#E3E3E3" stroke-width="2"></line>
        <line x1="53.0797" y1="91.823" x2="53.0797" y2="104.08" stroke="#E3E3E3" stroke-width="2"></line>
        <circle cx="53.5" cy="53.5" r="40.5" fill="black"></circle>
      </svg>