<svg width="130" height="132" viewBox="0 0 130 132" fill="none" xmlns="http://www.w3.org/2000/svg">
<line x1="66" x2="66" y2="19" stroke="#E3E3E3" stroke-width="2"/>
<line x1="17.7071" y1="21.2929" x2="29.7279" y2="33.3137" stroke="#E3E3E3" stroke-width="2"/>
<line x1="99.7071" y1="97.2929" x2="112.707" y2="110.293" stroke="#E3E3E3" stroke-width="2"/>
<line x1="17.2929" y1="109.314" x2="29.3137" y2="97.2929" stroke="#E3E3E3" stroke-width="2"/>
<line x1="100.293" y1="34.2929" x2="113.293" y2="21.2929" stroke="#E3E3E3" stroke-width="2"/>
<line x1="84.0952" y1="22.5742" x2="92.0952" y2="5.5742" stroke="#E3E3E3" stroke-width="2"/>
<line x1="38.0761" y1="125.323" x2="44.5817" y2="109.617" stroke="#E3E3E3" stroke-width="2"/>
<line x1="83.9207" y1="108.61" x2="91.4263" y2="126.316" stroke="#E3E3E3" stroke-width="2"/>
<line x1="38.9239" y1="6.61732" x2="45.4295" y2="22.3233" stroke="#E3E3E3" stroke-width="2"/>
<line x1="4.61732" y1="88.5817" x2="20.3233" y2="82.0761" stroke="#E3E3E3" stroke-width="2"/>
<line x1="109.568" y1="49.0981" x2="126.274" y2="41.0981" stroke="#E3E3E3" stroke-width="2"/>
<line x1="5.38268" y1="41.0761" x2="21.0886" y2="47.5817" stroke="#E3E3E3" stroke-width="2"/>
<line x1="109.381" y1="82.0753" x2="126.381" y2="89.0753" stroke="#E3E3E3" stroke-width="2"/>
<line y1="64" x2="17" y2="64" stroke="#E3E3E3" stroke-width="2"/>
<line x1="112" y1="64" x2="130" y2="64" stroke="#E3E3E3" stroke-width="2"/>
<line x1="66" y1="112" x2="66" y2="132" stroke="#E3E3E3" stroke-width="2"/>
</svg>
