<svg width="120" height="117" viewBox="0 0 120 117" fill="none" xmlns="http://www.w3.org/2000/svg">
<line x1="58" y1="25" x2="58" y2="38" stroke="#E3E3E3" stroke-width="2"/>
<line x1="13.6247" y1="16.2191" x2="23.6247" y2="24.2191" stroke="#E3E3E3" stroke-width="2"/>
<line x1="93.7474" y1="90.3356" x2="101.747" y2="99.3356" stroke="#E3E3E3" stroke-width="2"/>
<line x1="16.2929" y1="97.2929" x2="25.2929" y2="88.2929" stroke="#E3E3E3" stroke-width="2"/>
<line x1="95.2929" y1="24.2929" x2="104.293" y2="15.2929" stroke="#E3E3E3" stroke-width="2"/>
<line x1="80.0769" y1="12.6154" x2="85.0769" y2="0.615385" stroke="#E3E3E3" stroke-width="2"/>
<line x1="35.0769" y1="111.615" x2="40.0769" y2="99.6154" stroke="#E3E3E3" stroke-width="2"/>
<line x1="77.9231" y1="100.615" x2="82.9231" y2="112.615" stroke="#E3E3E3" stroke-width="2"/>
<line x1="33.8944" y1="0.552786" x2="39.8944" y2="12.5528" stroke="#E3E3E3" stroke-width="2"/>
<line x1="3.52115" y1="79.1221" x2="14.5211" y2="73.1221" stroke="#E3E3E3" stroke-width="2"/>
<line x1="104.586" y1="39.0896" x2="115.586" y2="34.0896" stroke="#E3E3E3" stroke-width="2"/>
<line x1="3.31623" y1="36.0513" x2="15.3162" y2="40.0513" stroke="#E3E3E3" stroke-width="2"/>
<line x1="104.385" y1="74.0769" x2="116.385" y2="79.0769" stroke="#E3E3E3" stroke-width="2"/>
<line y1="55" x2="12" y2="55" stroke="#E3E3E3" stroke-width="2"/>
<line x1="108" y1="55" x2="120" y2="55" stroke="#E3E3E3" stroke-width="2"/>
<line x1="60" y1="104" x2="60" y2="117" stroke="#E3E3E3" stroke-width="2"/>
</svg>
