<svg width="129" height="129" viewBox="0 0 129 129" fill="none" xmlns="http://www.w3.org/2000/svg">
<line x1="65" x2="65" y2="15" stroke="#E3E3E3" stroke-width="2"/>
<line x1="16.6757" y1="20.2628" x2="28.6757" y2="31.2628" stroke="#E3E3E3" stroke-width="2"/>
<line x1="99.6757" y1="98.2628" x2="111.676" y2="109.263" stroke="#E3E3E3" stroke-width="2"/>
<line x1="16.3236" y1="108.284" x2="28.3236" y2="97.2635" stroke="#E3E3E3" stroke-width="2"/>
<line x1="100.324" y1="31.2628" x2="112.324" y2="20.2628" stroke="#E3E3E3" stroke-width="2"/>
<line x1="84.1056" y1="19.5528" x2="91.1056" y2="5.55279" stroke="#E3E3E3" stroke-width="2"/>
<line x1="37.1056" y1="123.553" x2="44.1056" y2="109.553" stroke="#E3E3E3" stroke-width="2"/>
<line x1="83.9285" y1="109.629" x2="89.9285" y2="124.629" stroke="#E3E3E3" stroke-width="2"/>
<line x1="37.9191" y1="5.60608" x2="43.9191" y2="19.6061" stroke="#E3E3E3" stroke-width="2"/>
<line x1="3.62861" y1="88.0715" x2="18.6286" y2="82.0715" stroke="#E3E3E3" stroke-width="2"/>
<line x1="110.553" y1="47.1056" x2="124.553" y2="40.1056" stroke="#E3E3E3" stroke-width="2"/>
<line x1="4.39392" y1="41.0809" x2="18.3939" y2="47.0809" stroke="#E3E3E3" stroke-width="2"/>
<line x1="110.371" y1="82.0715" x2="125.371" y2="88.0715" stroke="#E3E3E3" stroke-width="2"/>
<line y1="63" x2="16" y2="63" stroke="#E3E3E3" stroke-width="2"/>
<line x1="114" y1="63" x2="129" y2="63" stroke="#E3E3E3" stroke-width="2"/>
<line x1="65" y1="113" x2="65" y2="129" stroke="#E3E3E3" stroke-width="2"/>
</svg>
